# xmcd
#
# Track frame offsets:
#	150
#	22447
#	41215
#	67951
#	85697
#	111232
#	129686
#	152941
#	174287
#
# Disc length: 2661 seconds
#
# Revision: 1
# Processed by: cddbd v1.5.1PL2 Copyright (c) Steve Scherf et al.
# Submitted via: audiograbber 1.83.01
#
DISCID=7a0a6309
DTITLE=Belinda Bruce - Dream Yourself Awake
DYEAR=2005
DGENRE=Country
TTITLE0=Underground
TTITLE1=Working Woman's Hands
TTITLE2=Dear One
TTITLE3=Falling Star
TTITLE4=Jimtown
TTITLE5=Treasure Hunt
TTITLE6=Twisted Lullaby
TTITLE7=Patricia Ann
TTITLE8=Dream
EXTD=
EXTT0=
EXTT1=
EXTT2=
EXTT3=
EXTT4=
EXTT5=
EXTT6=
EXTT7=
EXTT8=
PLAYORDER=
